<?xml version="1.0" encoding="UTF-8" standalone="no"?>
<!-- Created with Inkscape (http://www.inkscape.org/) -->

<svg
   version="1.1"
   id="svg1"
   width="759.03644"
   height="371.04297"
   viewBox="0 0 759.03644 371.04297"
   sodipodi:docname="logo.svg"
   inkscape:version="1.4.2 (f4327f4, 2025-05-13)"
   xmlns:inkscape="http://www.inkscape.org/namespaces/inkscape"
   xmlns:sodipodi="http://sodipodi.sourceforge.net/DTD/sodipodi-0.dtd"
   xmlns="http://www.w3.org/2000/svg"
   xmlns:svg="http://www.w3.org/2000/svg">
  <defs
     id="defs1" />
  <sodipodi:namedview
     id="namedview1"
     pagecolor="#ffffff"
     bordercolor="#000000"
     borderopacity="0.25"
     inkscape:showpageshadow="2"
     inkscape:pageopacity="0.0"
     inkscape:pagecheckerboard="0"
     inkscape:deskcolor="#d1d1d1"
     inkscape:zoom="0.83105469"
     inkscape:cx="270.7403"
     inkscape:cy="267.73208"
     inkscape:window-width="1920"
     inkscape:window-height="1111"
     inkscape:window-x="-9"
     inkscape:window-y="-9"
     inkscape:window-maximized="1"
     inkscape:current-layer="g1" />
  <g
     inkscape:groupmode="layer"
     inkscape:label="Image"
     id="g1"
     transform="translate(-142.65853,-330.01891)">
    <path
       style="mix-blend-mode:normal;fill:#42aaff;fill-opacity:1"
       d="m 177.15922,699.67701 c -2.75,-0.67933 -7.16684,-2.20374 -9.81521,-3.38756 -5.73047,-2.56154 -16.53338,-13.02992 -19.55163,-18.94617 -5.30994,-10.40835 -5.13316,-5.28423 -5.13316,-148.78746 0,-91.86845 0.33801,-134.93473 1.09103,-139.00818 2.72667,-14.74988 14.54112,-28.27415 28.93411,-33.12152 5.11911,-1.72405 10.15336,-1.84386 77.47486,-1.84386 h 72 l 6.75853,3.20145 c 11.74166,5.56192 20.53337,15.70467 24.26044,27.98862 1.7323,5.70943 2.04959,33.72269 0.44731,39.49163 -0.79494,2.86214 -4.41659,6.90889 -16.26945,18.17912 -18.60468,17.69016 -19.7606,18.61299 -24.22074,19.33677 -6.61698,1.07379 -10.39187,-5.09219 -7.06095,-11.53349 1.43759,-2.77998 11.56734,-12.80027 23.90921,-23.65082 l 6.80954,-5.98672 -0.31694,-15.01328 c -0.28376,-13.44098 -0.56229,-15.48455 -2.65955,-19.51328 -3.17443,-6.09788 -5.75223,-8.71805 -11.6574,-11.84899 l -5,-2.65101 h -68.5 -68.5 l -5,2.65101 c -6.29796,3.3392 -8.71392,5.94257 -11.92405,12.84899 l -2.55641,5.5 -0.01,65.25 c -0.008,55.39742 0.20252,65.25 1.39615,65.25 0.77326,0 19.4877,-17.8875 41.58764,-39.75 22.09994,-21.8625 41.53348,-40.3306 43.18564,-41.04023 2.60162,-1.11743 3.37513,-1.05047 5.77571,0.5 1.52448,0.98463 22.17978,20.91523 45.90066,44.29023 23.72088,23.375 43.69488,42.5 44.38665,42.5 0.84808,0 1.52208,-2.76871 2.06918,-8.5 1.10678,-11.59439 1.19264,-11.90835 4.708,-17.21558 2.53364,-3.8251 51.96461,-51.39149 66.38758,-63.88339 5.90633,-5.11553 9.74662,-15.452 6.48889,-17.46538 -2.17753,-1.34579 -4.85195,-9.02719 -4.85195,-13.93565 0,-6.54372 2.69561,-12.26524 7.86211,-16.68757 8.54067,-7.3105 19.61243,-7.34032 28.09953,-0.0757 14.95647,12.80219 8.10075,35.38487 -12.03869,39.65535 -1.97438,0.41866 -2.78689,1.48241 -3.68353,4.82252 -1.289,4.80173 -3.48965,7.05512 -48.5273,49.69053 -27.18745,25.73731 -28.66962,27.57187 -32.4991,40.22581 -1.40091,4.62909 -1.70945,14.6028 -2.23876,72.36904 -0.44245,48.28802 -0.95169,68.00718 -1.82337,70.6063 -1.87927,5.60348 -8.41732,15.07232 -13.28327,19.23771 -5.64804,4.83488 -14.92602,9.36819 -21.79803,10.65071 -8.23119,1.53619 -134.2266,1.1778 -140.61351,-0.39997 z m 144.2935,-19.48661 c 2.98471,-1.34863 6.8109,-4.1646 8.77253,-6.45632 6.38521,-7.45968 6.43397,-7.98021 6.43397,-68.68625 V 550.3764 l -43.10661,-42.39707 c -23.70863,-23.31839 -43.50207,-42.54488 -43.98541,-42.72554 -0.48334,-0.18066 -20.68537,19.13669 -44.89339,42.92744 l -44.01459,43.2559 v 54.28762 c 0,47.14636 0.21084,54.91705 1.60281,59.07256 2.02486,6.04495 5.3403,10.46864 10.00806,13.35347 8.05177,4.97627 6.55836,4.8865 77.38913,4.65182 l 66.5,-0.22034 z M 199.72065,633.33226 c -1.18807,-0.9625 -2.57719,-3.55 -3.08693,-5.75 -1.25865,-5.4323 -1.22479,-52.90139 0.0425,-59.61351 0.99951,-5.29372 1.39132,-5.76152 22.75,-27.16153 24.56658,-24.61412 28.11659,-27.5332 31.80058,-26.1488 1.35211,0.50811 12.98028,11.4313 25.84037,24.27374 17.30736,17.28361 23.53917,24.13582 23.98701,26.375 0.33276,1.66381 0.60502,16.65932 0.60502,33.32337 v 30.29828 l -2.58889,3.07672 -2.5889,3.07673 h -47.30032 c -43.55835,0 -47.47121,-0.13844 -49.46046,-1.75 z m 83.73857,-16.45 c 1.60726,-1.60726 1.69025,-41.96435 0.0928,-45.11574 -2.06782,-4.07921 -32.27586,-33.68426 -34.37036,-33.68426 -1.2541,0 -8.25711,6.24799 -18.76172,16.73897 l -16.76072,16.73897 v 22.59436 c 0,12.4269 0.3,22.89437 0.66667,23.26103 0.36666,0.36667 15.80166,0.66667 34.3,0.66667 24.82592,0 33.94757,-0.31424 34.83333,-1.2 z m -47.2433,-16.02251 c -1.20048,-1.71393 -1.5567,-4.98823 -1.5567,-14.30887 0,-16.4339 -0.43577,-15.96862 14.95586,-15.96862 9.68265,0 12.30759,0.30136 13.0653,1.5 0.52152,0.825 0.95511,7.43036 0.96353,14.67857 0.0124,10.66171 -0.2848,13.47869 -1.55612,14.75 -1.24432,1.24433 -3.93857,1.57143 -12.94329,1.57143 -10.61775,0 -11.4751,-0.14738 -12.92858,-2.22251 z m 208.6933,-185.97517 c 2.68566,-3.10599 2.21256,-7.49361 -1.17308,-10.87924 -3.46175,-3.46176 -3.64463,-3.48404 -7.80008,-0.95036 -3.89775,2.37655 -5.16051,6.36221 -3.15038,9.94352 2.89421,5.15639 8.53677,6.03421 12.12354,1.88608 z m 297.83137,273.66393 c -6.47246,-1.80554 -10.42062,-4.13311 -14.93468,-8.80447 -2.37099,-2.45362 -3.10334,-3.90457 -2.5,-4.9531 1.24932,-2.17114 9.33698,-8.70868 10.77361,-8.70868 0.67709,0 2.32201,1.18436 3.65539,2.63192 7.34908,7.97842 22.73968,8.50344 28.65945,0.97766 2.44816,-3.11233 4.90274,-12.3717 3.61975,-13.65469 -0.51119,-0.51119 -3.40539,0.40169 -6.86914,2.16664 -5.56505,2.83567 -6.58806,3.02297 -14.55553,2.6649 -7.20686,-0.3239 -9.34432,-0.83906 -13.44002,-3.2393 -6.02392,-3.53026 -8.93955,-6.61182 -12.3446,-13.04713 -2.39743,-4.53097 -2.6456,-6.03186 -2.6456,-16 0,-9.61879 0.30423,-11.61814 2.42291,-15.92291 4.95869,-10.07514 14.09424,-16.48769 24.70204,-17.33918 7.98014,-0.64057 12.28662,0.21286 16.91157,3.35144 3.84318,2.60805 5.00368,2.38351 5.63011,-1.08935 0.32731,-1.81454 1.14768,-2 8.84707,-2 h 8.4863 v 36 c 0,34.66256 -0.0794,36.17173 -2.13733,40.6224 -3.07761,6.65596 -8.594,12.29338 -14.62103,14.94182 -6.74357,2.9633 -21.55385,3.66338 -29.66027,1.40203 z m 20.9288,-44.71625 c 6.14612,-4.18302 7.48983,-7.00863 7.48983,-15.75 0,-6.3722 -0.38885,-8.37417 -2.06179,-10.61488 -3.91787,-5.24756 -7.11401,-6.88512 -13.43821,-6.88512 -6.27621,0 -9.52318,1.64136 -13.32785,6.7373 -2.17123,2.90813 -3.26752,10.77558 -2.25419,16.17708 1.9154,10.20997 15.21558,16.0367 23.59221,10.33562 z m -94.51017,20.37395 c -10.47811,-2.75701 -16.5,-10.431 -16.5,-21.02673 0,-6.17331 0.97958,-8.813 4.61934,-12.44775 5.73492,-5.72704 9.72678,-6.98782 23.6057,-7.45556 14.47219,-0.48772 15.87195,-1.13132 13.72635,-6.31128 -1.63398,-3.94476 -6.37625,-6.87406 -11.13629,-6.87889 -4.89336,-0.005 -7.85693,1.21608 -12.19415,5.02421 -3.58498,3.14765 -3.62498,3.15618 -8.86109,1.88944 -7.56324,-1.82973 -8.23933,-2.6786 -6.1976,-7.7814 2.11851,-5.29467 8.18673,-10.51954 15.35839,-13.22392 4.53915,-1.71167 7.16407,-2.02585 14.07935,-1.68515 10.06085,0.49566 16.95233,3.47703 21.93317,9.48865 5.39181,6.50763 6.1393,11.1641 5.83643,36.35777 l -0.2696,22.42666 -7.5,0.7185 c -7.15301,0.68525 -7.58826,0.60661 -9.40772,-1.69973 l -1.90771,-2.41822 -4.41711,2.5886 c -4.75443,2.78628 -14.90762,3.97665 -20.76746,2.4348 z m 20.49964,-15.12377 c 3.06579,-1.56404 4.1872,-2.89176 5.14634,-6.09307 1.88687,-6.29781 0.70245,-7.3483 -8.68445,-7.70248 -9.01743,-0.34023 -13.20487,0.99009 -14.59081,4.63541 -3.13104,8.23525 8.4609,14.0924 18.12892,9.16014 z m 127.50036,13.09098 c -14.01379,-6.79029 -20.42079,-18.82663 -19.23449,-36.13438 0.63067,-9.2013 3.73771,-16.27256 9.95161,-22.64867 6.32514,-6.49027 12.4605,-8.79832 23.28288,-8.75875 7.7329,0.0283 9.79995,0.41998 14.68187,2.78217 9.73234,4.70913 15.05163,12.56719 17.00285,25.11792 0.88015,5.66132 0.88289,8.10675 0.0112,10.01983 l -1.15304,2.53072 -21.77144,0.0153 c -11.97429,0.008 -22.39425,0.40976 -23.15547,0.89185 -2.0546,1.30123 1.49327,7.97322 5.74578,10.8053 7.14787,4.7603 14.62552,3.98616 21.93553,-2.27093 l 4.20683,-3.6009 4.92099,1.63449 c 8.71522,2.89473 8.89672,5.42338 1.00385,13.98613 -5.56823,6.04082 -12.36131,8.539 -23.21646,8.53796 -7.02328,-6.7e-4 -9.08132,-0.42177 -14.21249,-2.90805 z m 27.10374,-40.5009 c 0.74686,-1.94629 -2.02173,-6.98729 -5.21862,-9.50196 -3.25002,-2.55647 -11.99463,-2.85871 -16.42497,-0.56769 -3.66112,1.89324 -7.39121,8.64833 -5.70604,10.3335 1.80204,1.80204 26.64885,1.56234 27.34963,-0.26385 z m -340.32532,41.15974 c -0.53156,-0.6875 -4.0183,-9.575 -7.74832,-19.75 -6.36341,-17.35854 -15.1766,-41.30103 -23.15437,-62.90268 -1.90989,-5.17147 -3.23987,-10.00897 -2.95552,-10.75 0.74549,-1.94271 17.87397,-1.90271 19.49085,0.0455 0.63578,0.76606 6.06914,16.80933 12.07415,35.6517 6.00501,18.84238 11.34522,34.68589 11.86712,35.20779 0.8677,0.8677 4.41125,-9.4359 19.68986,-57.25233 2.021,-6.325 4.38527,-12.30379 5.25392,-13.28619 1.32737,-1.50119 2.9456,-1.74053 10.14163,-1.5 l 8.56226,0.28621 -0.19349,3.52032 c -0.10642,1.93618 -4.00178,13.63618 -8.65635,26 -4.65457,12.36383 -11.92525,31.70468 -16.15707,42.97968 -4.23181,11.275 -8.15406,21.0625 -8.7161,21.75 -0.67608,0.82701 -3.98457,1.25 -9.77699,1.25 -5.82197,0 -9.0789,-0.41878 -9.72158,-1.25 z m 60.86279,-0.0799 c -0.85176,-1.0263 -1.0973,-10.32901 -0.90504,-34.28927 l 0.26383,-32.88083 h 8.5 8.5 v 34 34 l -7.59496,0.28927 c -5.59187,0.21298 -7.90324,-0.0822 -8.76383,-1.11913 z m 33.35879,0.37482 -3,-0.5646 v -46.99014 -46.99018 h 8.5 8.5 l 0.25991,46.77758 c 0.20516,36.925 -0.005,46.86048 -1,47.17114 -2.54279,0.79429 -10.34374,1.14506 -13.25991,0.59624 z m 32,0.0838 -4,-0.62873 v -47 -47 l 7.3425,-0.29568 c 4.55244,-0.18332 7.87733,0.1482 8.75,0.87245 1.17252,0.97311 1.4075,8.81731 1.4075,46.98666 0,25.20019 -0.3375,46.01818 -0.75,46.2622 -1.59036,0.94078 -8.93199,1.40322 -12.75,0.8031 z m -64.54597,-77.87872 c -5.66307,-5.06039 -5.01137,-14.41541 1.27104,-18.2458 8.74566,-5.33223 18.80899,1.24834 17.44651,11.40855 -0.77998,5.81645 -5.17391,9.58725 -11.17158,9.58725 -3.46194,0 -5.16165,-0.61943 -7.54597,-2.75 z m -4.18999,-42.193 c -8.8273,-2.82801 -17.81798,-12.25419 -20.75372,-21.75901 -4.74132,-15.35062 -1.02322,-30.83525 9.66255,-40.24124 5.89544,-5.18937 12.3677,-7.25675 22.7184,-7.25675 10.33503,0 16.81709,2.53264 22.63431,8.84357 6.09663,6.61407 8.20021,12.24678 8.34917,22.35643 l 0.12525,8.5 -22.42114,0.26959 c -14.16815,0.17035 -22.89938,0.66649 -23.72039,1.34787 -1.05129,0.8725 -0.91551,1.83049 0.71147,5.01964 4.86056,9.52748 17.71288,11.66767 25.86093,4.30639 4.35028,-3.93022 6.78486,-4.20948 12.81913,-1.47042 2.91014,1.32096 4.25,2.55057 4.25,3.9003 0,3.0669 -6.06028,10.26921 -11.43897,13.5946 -4.52131,2.79531 -5.62838,3.02711 -15.46547,3.2382 -5.82756,0.12504 -11.82674,-0.16708 -13.33152,-0.64917 z m 23.90921,-42.64789 c 1.20142,-3.13085 -2.43792,-8.41747 -7.26434,-10.55243 -4.03051,-1.78288 -5.13725,-1.88143 -9.46622,-0.84293 -6.93018,1.66252 -13.29841,9.29719 -10.27602,12.31958 0.36666,0.36667 6.45579,0.66667 13.53138,0.66667 10.83949,0 12.96083,-0.25045 13.4752,-1.59089 z m 48.6833,41.56515 c -7.46208,-2.95169 -13.70506,-8.90547 -17.5698,-16.75587 -3.05465,-6.20488 -3.28637,-7.38398 -3.28139,-16.69736 0.005,-8.87651 0.32538,-10.7063 2.80737,-16.02103 3.56711,-7.6383 11.02804,-14.78816 17.76741,-17.02662 6.87692,-2.28415 22.80887,-1.733 28.32326,0.97981 7.387,3.63404 15.13145,13.78013 14.40609,18.87358 -0.2846,1.99844 -0.96116,2.1964 -8.41177,2.46129 l -8.10229,0.28805 -2.58638,-3.39092 c -2.98268,-3.91049 -9.67678,-6.29046 -14.63192,-5.20213 -7.85823,1.72596 -12.78537,10.76973 -11.79826,21.65574 0.57273,6.31619 4.34281,14.08877 7.44462,15.34819 8.1653,3.31533 13.37128,2.35932 19.19743,-3.52536 3.70185,-3.73903 4.25919,-3.96163 9.91887,-3.96163 3.29815,0 6.70844,0.27314 7.57842,0.60699 5.27951,2.02594 -3.47051,16.77235 -12.85,21.6561 -6.02057,3.13482 -21.1221,3.5155 -28.21166,0.71117 z m 220.64345,0.47602 c -5.41068,-1.69585 -13.60915,-7.74657 -16.68931,-12.31721 -7.73945,-11.48458 -8.3328,-29.27105 -1.35321,-40.56427 3.29501,-5.33143 11.16276,-11.87251 16.62751,-13.82375 7.19084,-2.56755 20.6521,-2.37657 28.06839,0.39822 6.86156,2.56724 13.83713,9.12857 17.38939,16.35673 3.5852,7.29521 4.0216,21.5549 0.91809,30 -3.01033,8.19156 -12.16621,17.32681 -19.82569,19.78103 -6.49321,2.08052 -18.77336,2.16321 -25.13517,0.16925 z m 21.06608,-15.98445 c 1.57088,-0.81233 4.11114,-3.61196 5.64503,-6.2214 5.50664,-9.36785 2.9303,-23.21276 -5.26171,-28.2757 -9.43754,-5.83272 -20.55758,-2.13407 -24.91126,8.28575 -4.45782,10.66906 0.98898,24.7314 10.71826,27.67201 3.91811,1.18422 9.92334,0.54905 13.80968,-1.46066 z m -374.58086,15.32334 c -0.26514,-0.70904 -0.59528,-17.93917 -0.73365,-38.28917 l -0.25157,-37 -12.9352,-0.28126 c -7.44551,-0.16189 -13.4932,-0.74436 -14.25,-1.37244 -1.35606,-1.12544 -1.85915,-11.26417 -0.70781,-14.26451 0.5383,-1.4028 4.77779,-1.58179 37.46482,-1.58179 35.41679,0 36.8983,0.0756 37.89301,1.93426 1.50032,2.80338 1.30346,12.5982 -0.27962,13.91204 -0.7568,0.62808 -6.80449,1.21055 -14.25,1.37244 l -12.9352,0.28126 -0.5,38 -0.5,38 -8.76635,0.28917 c -6.4533,0.21287 -8.89356,-0.051 -9.24843,-1 z m 186.21059,0.49993 c -0.2588,-0.43401 -0.79972,-21.54198 -1.20204,-46.90662 -0.51754,-32.62861 -0.41617,-46.31241 0.34659,-46.78382 2.2044,-1.36239 13.79528,-1.86403 15.98556,-0.69183 2.08283,1.1147 2.17408,1.78915 2.17408,16.06934 0,8.19819 0.41906,15.16479 0.93124,15.48134 0.51219,0.31654 2.61679,-0.56831 4.6769,-1.96633 4.92131,-3.33969 6.9969,-3.78203 15.64482,-3.33415 6.14739,0.31838 7.93559,0.85115 11.78477,3.51115 2.82215,1.95025 5.65768,5.15773 7.5,8.48382 l 2.96227,5.348 v 25.5 25.5 h -8.5 -8.5 l -0.0154,-20.5 c -0.0188,-25.07695 0.0786,-24.17718 -3.01734,-27.85652 -5.3935,-6.40981 -16.09093,-6.28348 -20.7478,0.24503 -2.09286,2.934 -2.24799,4.39497 -2.71947,25.61149 l -0.5,22.5 -8.16682,0.2891 c -4.49175,0.159 -8.37857,-0.066 -8.63737,-0.5 z m 73.91118,-0.87089 c -0.33385,-0.86998 -0.60699,-15.45818 -0.60699,-32.41821 0,-16.96003 0.27314,-31.54823 0.60699,-32.41821 0.48277,-1.25809 2.22728,-1.58179 8.52475,-1.58179 7.61063,0 7.95618,0.10105 8.9082,2.60506 0.98398,2.58805 1.00829,2.59335 3.72525,0.812 1.50415,-0.98618 3.85981,-2.38068 5.23481,-3.09889 3.29713,-1.72222 16.18318,-1.6863 20.35485,0.0567 5.2575,2.19673 10.20817,7.19737 12.73924,12.86782 2.2004,4.92965 2.36993,6.70835 2.72029,28.54154 0.27738,17.28582 0.0603,23.66187 -0.84282,24.75 -1.75899,2.11946 -16.51842,2.08899 -17.33377,-0.0358 -0.3169,-0.82583 -0.29731,-10.17032 0.0435,-20.76552 0.57616,-17.9102 0.47806,-19.58422 -1.39584,-23.8205 -4.42985,-10.01442 -17.69345,-10.39078 -23.01464,-0.65299 -1.53144,2.80254 -1.77081,6.01166 -1.77081,23.74058 0,11.275 -0.36406,21.0625 -0.80902,21.75 -0.53381,0.82478 -3.47396,1.25 -8.64301,1.25 -6.22109,0 -7.95896,-0.32567 -8.44098,-1.58179 z M 327.7318,481.4474 c -4.41365,-5.61105 -3.10121,-7.37492 24.08522,-32.36962 12.83821,-11.80322 24.8047,-22.88579 26.5922,-24.62795 l 3.25,-3.16757 v -22.25422 -22.25421 l -5.92258,-5.35963 c -7.44344,-6.73592 -9.59044,-11.7377 -8.79654,-20.49294 0.65823,-7.259 3.94269,-12.64395 10.54014,-17.28082 5.73265,-4.02905 15.77255,-4.8265 21.83392,-1.73422 4.45373,2.27213 10.93331,8.96285 12.38969,12.79342 1.26143,3.31781 1.20724,11.93547 -0.10476,16.65995 -1.21369,4.37047 -5.97074,10.17015 -10.08831,12.29943 l -2.85156,1.4746 v 23.98522 c 0,22.15262 -0.15779,24.3209 -2.06518,28.3787 -1.5248,3.24386 -7.69798,9.58642 -23.5918,24.23911 -36.53701,33.68386 -34.91042,32.34561 -39.31489,32.34561 -3.00376,0 -4.35226,-0.5966 -5.95555,-2.63486 z m 65.2701,-121.47541 c 2.37745,-1.08324 4.65732,-4.65771 4.65732,-7.30192 0,-2.72631 -4.09771,-6.58781 -6.99079,-6.58781 -4.23465,0 -5.91888,0.92465 -7.59772,4.17116 -1.82588,3.53087 -1.16132,6.09386 2.28248,8.80275 2.94629,2.31756 4.23386,2.47173 7.64871,0.91582 z m -163.75379,39.03354 c -3.27904,-3.89691 -3.28239,-6.92244 -0.0111,-9.99896 2.49393,-2.34543 3.1451,-2.43455 20.01232,-2.73891 l 17.43451,-0.3146 2.98768,2.98767 c 3.7608,3.7608 3.77815,6.50491 0.0646,10.21845 l -2.92305,2.92308 h -17.48803 -17.48803 z"
       id="path1" />
  </g>
</svg>
