<svg width="16" height="14" viewBox="0 0 16 14" fill="none" xmlns="http://www.w3.org/2000/svg">
<path d="M1.09992 6.01979C5.39487 4.14855 8.25885 2.91491 9.69185 2.31887C13.7834 0.617077 14.6335 0.321457 15.1877 0.311591C15.3095 0.309549 15.582 0.339753 15.7586 0.482986C15.9076 0.603929 15.9486 0.767306 15.9683 0.881973C15.9879 0.99664 16.0123 1.25785 15.9929 1.46196C15.7712 3.79159 14.8118 9.44499 14.3237 12.0542C14.1172 13.1583 13.7105 13.5285 13.3168 13.5647C12.4613 13.6434 11.8116 12.9993 10.9829 12.4561C9.68624 11.6061 8.95369 11.0769 7.69503 10.2475C6.24042 9.28894 7.18338 8.7621 8.01236 7.90109C8.22931 7.67576 11.999 4.24696 12.0719 3.93591C12.0811 3.89701 12.0895 3.752 12.0034 3.67543C11.9172 3.59887 11.7901 3.62505 11.6983 3.64587C11.5683 3.67539 9.4968 5.04456 5.48389 7.75339C4.89591 8.15715 4.36333 8.35387 3.88616 8.34356C3.36012 8.3322 2.34822 8.04613 1.59598 7.80161C0.673328 7.50169 -0.0599784 7.34312 0.00387615 6.83377C0.0371355 6.56846 0.402482 6.29714 1.09992 6.01979Z" fill="white"/>
</svg>
