<svg width="16" height="17" viewBox="0 0 16 17" fill="none" xmlns="http://www.w3.org/2000/svg">
<path fill-rule="evenodd" clip-rule="evenodd" d="M13.6 2.6115C12.1 1.1115 10.1 0.311497 8 0.311497C3.6 0.311497 0 3.9115 0 8.3115C0 9.7115 0.400006 11.1115 1.10001 12.3115L0 16.3115L4.20001 15.2115C5.40001 15.8115 6.7 16.2115 8 16.2115C12.4 16.2115 16 12.6115 16 8.2115C16 6.1115 15.1 4.1115 13.6 2.6115ZM8 14.9115C6.8 14.9115 5.60001 14.6115 4.60001 14.0115L4.39999 13.9115L1.89999 14.6115L2.60001 12.2115L2.39999 11.9115C1.69999 10.8115 1.39999 9.6115 1.39999 8.4115C1.39999 4.8115 4.4 1.8115 8 1.8115C9.8 1.8115 11.4 2.5115 12.7 3.7115C14 5.0115 14.6 6.6115 14.6 8.4115C14.6 11.9115 11.7 14.9115 8 14.9115ZM11.6 9.9115C11.4 9.8115 10.4 9.3115 10.2 9.3115C10 9.2115 9.89999 9.2115 9.79999 9.4115C9.69999 9.6115 9.30001 10.0115 9.20001 10.2115C9.10001 10.3115 8.99999 10.3115 8.79999 10.3115C8.59999 10.2115 8.00001 10.0115 7.20001 9.3115C6.60001 8.8115 6.20001 8.1115 6.10001 7.9115C6.00001 7.7115 6.10001 7.6115 6.20001 7.5115C6.30001 7.4115 6.4 7.3115 6.5 7.2115C6.6 7.1115 6.60001 7.0115 6.70001 6.9115C6.80001 6.8115 6.70001 6.7115 6.70001 6.6115C6.70001 6.5115 6.30001 5.5115 6.10001 5.1115C6.00001 4.8115 5.80001 4.8115 5.70001 4.8115C5.60001 4.8115 5.49999 4.8115 5.29999 4.8115C5.19999 4.8115 4.99999 4.8115 4.79999 5.0115C4.59999 5.2115 4.10001 5.7115 4.10001 6.7115C4.10001 7.7115 4.79999 8.6115 4.89999 8.8115C4.99999 8.9115 6.29999 11.0115 8.29999 11.8115C9.99999 12.5115 10.3 12.3115 10.7 12.3115C11.1 12.3115 11.9 11.8115 12 11.4115C12.2 10.9115 12.2 10.5115 12.1 10.5115C12 10.0115 11.8 10.0115 11.6 9.9115Z" fill="white"/>
</svg>
